<svg id="Capa_1" enable-background="new 0 0 552.47 552.47" height="512" viewBox="0 0 552.47 552.47" width="512" xmlns="http://www.w3.org/2000/svg"><path d="m276.235 103.588c-152.313 0-276.235 88.178-276.235 196.555 0 67.862 47.916 148.74 276.235 148.74s276.235-80.878 276.235-148.74c0-108.377-123.921-196.555-276.235-196.555zm0 310.765c-110.265 0-241.706-19.811-241.706-114.21 0-53.438 38.96-100.771 98.657-130.301 28.926 40.584 39.461 89.129 39.461 89.129 23.861-6.424 19.591-74.631 7.17-107.316 20.093-5.886 41.63-9.888 64.11-11.916 36.626 42.316 49.573 101.967 49.573 101.967 22.738-6.122 19.954-68.46 8.894-102.598 18.188 1.319 35.689 4.099 52.447 7.979 44.089 42.114 59.512 111.883 59.512 111.883 19.191-5.168 20.194-50.38 13.393-84.886 54.932 29.726 90.195 75.16 90.195 126.059 0 94.399-131.441 114.21-241.706 114.21z"/></svg>